<svg xmlns="http://www.w3.org/2000/svg" xmlns:xlink="http://www.w3.org/1999/xlink" version="1.1"
					id="Layer_1" x="0px" y="0px" viewBox="0 0 160 70" enable-background="new 0 0 160 70"
					xml:space="preserve">
					<g>
						<g>
							<path fill-rule="evenodd" clip-rule="evenodd" fill="#231F20"
								d="M24.6,19.6c1.2-4.1,3.1-5.7,5.2-5.7c2,0,3,1.6,1.8,5.7l-1.2,4    h13.2c1.6-5.5,2.4-8.9,2.5-11.5C46.3,3.6,41,0,33.9,0c-13.8,0-21,9.4-28.6,35c-8,26.7-7.3,35,6.8,35c3.9,0,7.4-1.5,11.1-4.7    l0.8,3.6h6.8l10.4-37.6H24.7l-3.8,12.2h3.7l-2,7.1c-1.2,4.1-3.5,5.7-5.6,5.7c-2,0-3-1.6-1.8-5.7L24.6,19.6z" />
							<path fill-rule="evenodd" clip-rule="evenodd" fill="#231F20"
								d="M24.6,19.6c1.2-4.1,3.1-5.7,5.2-5.7c2,0,3,1.6,1.8,5.7l-1.2,4    h13.2c1.6-5.5,2.4-8.9,2.5-11.5C46.3,3.6,41,0,33.9,0c-13.8,0-21,9.4-28.6,35c-8,26.7-7.3,35,6.8,35c3.9,0,7.4-1.5,11.1-4.7    l0.8,3.6h6.8l10.4-37.6H24.7l-3.8,12.2h3.7l-2,7.1c-1.2,4.1-3.5,5.7-5.6,5.7c-2,0-3-1.6-1.8-5.7L24.6,19.6z" />
						</g>
						<g>
							<polygon fill-rule="evenodd" clip-rule="evenodd" fill="#231F20"
								points="46,69 63.9,4.1 52.2,4.1 34.3,69   " />
							<polygon fill-rule="evenodd" clip-rule="evenodd" fill="#231F20"
								points="46,69 63.9,4.1 52.2,4.1 34.3,69   " />
						</g>
						<g>
							<path fill-rule="evenodd" clip-rule="evenodd" fill="#231F20"
								d="M85.2,47.3c1.2-4.1,2-7.7,2-10.8c0.2-7.5-3.7-11.9-11.1-11.9    c-7.4,0-13.7,4.4-17.7,11.9c-1.7,3.1-2.8,6.6-4,10.8c-1.2,4.1-2,7.7-2,10.8C52.3,65.6,56.2,70,63.6,70c7.4,0,13.7-4.4,17.7-11.9    C83,55,84.1,51.4,85.2,47.3z M73.6,47.3c-2.7,9.6-4,11.1-6.8,11.1c-2.8,0-3.2-1.6-0.6-11.1c2.7-9.6,4-11.1,6.8-11.1    C75.8,36.2,76.2,37.7,73.6,47.3z" />
							<path fill-rule="evenodd" clip-rule="evenodd" fill="#231F20"
								d="M85.2,47.3c1.2-4.1,2-7.7,2-10.8c0.2-7.5-3.7-11.9-11.1-11.9    c-7.4,0-13.7,4.4-17.7,11.9c-1.7,3.1-2.8,6.6-4,10.8c-1.2,4.1-2,7.7-2,10.8C52.3,65.6,56.2,70,63.6,70c7.4,0,13.7-4.4,17.7-11.9    C83,55,84.1,51.4,85.2,47.3z M73.6,47.3c-2.7,9.6-4,11.1-6.8,11.1c-2.8,0-3.2-1.6-0.6-11.1c2.7-9.6,4-11.1,6.8-11.1    C75.8,36.2,76.2,37.7,73.6,47.3z" />
						</g>
						<g>
							<path fill-rule="evenodd" clip-rule="evenodd" fill="#231F20"
								d="M93.7,69l6.5-23.6c1.1-4.1,3.6-6.6,8.5-6.6c1.7,0,2.8,0.6,4,0.9    l4.2-15c-5.5,0.1-9,2.4-12.9,7.9h-0.2l1.9-6.9H94L82,69H93.7z" />
							<path fill-rule="evenodd" clip-rule="evenodd" fill="#231F20"
								d="M93.7,69l6.5-23.6c1.1-4.1,3.6-6.6,8.5-6.6c1.7,0,2.8,0.6,4,0.9    l4.2-15c-5.5,0.1-9,2.4-12.9,7.9h-0.2l1.9-6.9H94L82,69H93.7z" />
						</g>
						<g>
							<polygon fill-rule="evenodd" clip-rule="evenodd" fill="#231F20"
								points="119,69 131,25.6 119.4,25.6 107.3,69   " />
							<polygon fill-rule="evenodd" clip-rule="evenodd" fill="#231F20"
								points="119,69 131,25.6 119.4,25.6 107.3,69   " />
						</g>
						<g>
							<path fill-rule="evenodd" clip-rule="evenodd" fill="#231F20"
								d="M141.2,38.2c0.6-2,2.2-3.5,4.4-3.5c2.3,0,3,1.5,2.5,3.5l-0.8,2.8    c-9.2,0.7-20,4.7-23.3,16.5c-2.2,8,0.6,12.5,5.5,12.5c5.5,0,7.9-2.3,11.7-6.3l0.1,0.2c-0.5,1.6-0.7,3.4-0.8,5.1h11.1    c0.5-2.9,1.3-6.4,2.3-9.8l4.6-16.6c3.2-11.4,0.5-17.9-9.7-17.9c-7.8,0-14.7,4-18.3,13.6H141.2z M143.1,56.2    c-1.2,0.9-3.7,2.6-5.2,2.6c-1.7,0-2.2-1.4-1.6-3.4c1-3.6,4.6-5.9,8.8-6.3L143.1,56.2z" />
							<path fill-rule="evenodd" clip-rule="evenodd" fill="#231F20"
								d="M141.2,38.2c0.6-2,2.2-3.5,4.4-3.5c2.3,0,3,1.5,2.5,3.5l-0.8,2.8    c-9.2,0.7-20,4.7-23.3,16.5c-2.2,8,0.6,12.5,5.5,12.5c5.5,0,7.9-2.3,11.7-6.3l0.1,0.2c-0.5,1.6-0.7,3.4-0.8,5.1h11.1    c0.5-2.9,1.3-6.4,2.3-9.8l4.6-16.6c3.2-11.4,0.5-17.9-9.7-17.9c-7.8,0-14.7,4-18.3,13.6H141.2z M143.1,56.2    c-1.2,0.9-3.7,2.6-5.2,2.6c-1.7,0-2.2-1.4-1.6-3.4c1-3.6,4.6-5.9,8.8-6.3L143.1,56.2z" />
						</g>
						<g>
							<path fill-rule="evenodd" clip-rule="evenodd" fill="#231F20"
								d="M120.2,17.8c0.7-2.9,4.2-5.3,7.8-5.3c3.7,0,6.1,2.4,5.5,5.3    c-0.7,2.9-4.2,5.3-7.8,5.3C122,23.2,119.5,20.8,120.2,17.8z" />
							<path fill-rule="evenodd" clip-rule="evenodd" fill="#231F20"
								d="M120.2,17.8c0.7-2.9,4.2-5.3,7.8-5.3c3.7,0,6.1,2.4,5.5,5.3    c-0.7,2.9-4.2,5.3-7.8,5.3C122,23.2,119.5,20.8,120.2,17.8z" />
						</g>
					</g>
				</svg>