<?xml version="1.0" encoding="UTF-8" standalone="no"?>
<svg width="45px" height="41px" viewBox="0 0 45 41" version="1.1" xmlns="http://www.w3.org/2000/svg" xmlns:xlink="http://www.w3.org/1999/xlink">
    <!-- Generator: Sketch 41.2 (35397) - http://www.bohemiancoding.com/sketch -->
    <title>bik</title>
    <desc>Created with Sketch.</desc>
    <defs/>
    <g id="" stroke="none" stroke-width="1" fill="none" fill-rule="evenodd">
        <g id="front" fill="#ff3948">
            <g id="Layer_1">
                <path d="M45,0 L40.5,0 C40.5,4 33.1,8.4 22.5,8.4 C11.9,8.4 4.5,4 4.5,0 L0,0 C0,5.2 5.2,9.6 12.8,11.7 C8.8,14.7 6.2,19.4 6.2,24.7 C6.2,33.7 13.5,41 22.5,41 C31.5,41 38.8,33.7 38.8,24.7 C38.8,19.4 36.2,14.6 32.2,11.7 C39.8,9.6 45,5.2 45,0 Z M34.3,24.7 C34.3,31.2 29,36.5 22.5,36.5 C16,36.5 10.7,31.2 10.7,24.7 C10.7,18.2 16,12.9 22.5,12.9 C29,12.9 34.3,18.2 34.3,24.7 Z" id="Shape"/>
            </g>
        </g>
    </g>
</svg>