<?xml version="1.0" encoding="UTF-8" standalone="no"?>
<svg width="36px" height="41px" viewBox="0 0 36 41" version="1.1" xmlns="http://www.w3.org/2000/svg" xmlns:xlink="http://www.w3.org/1999/xlink">
    <!-- Generator: Sketch 41.2 (35397) - http://www.bohemiancoding.com/sketch -->
    <title>blizanci</title>
    <desc>Created with Sketch.</desc>
    <defs/>
    <g id="" stroke="none" stroke-width="1" fill="none" fill-rule="evenodd">
      <g id="front" fill="#ff3948">
            <g id="Layer_1">
                <path d="M25.7,32.3 L25.7,8.7 C30,7.7 33.6,5.7 36,3 L32.8,0 C29.8,3.2 24.2,5.2 18,5.2 C11.8,5.2 6.2,3.2 3.2,0 L0,3 C2.4,5.7 6,7.6 10.3,8.7 L10.3,32.2 C6,33.3 2.4,35.3 0,38 L3.2,41 C6.2,37.8 11.8,35.8 18,35.8 C24.2,35.8 29.8,37.8 32.8,41 L36,38 C33.6,35.3 30,33.3 25.7,32.3 Z M14.7,31.5 L14.7,9.5 C15.8,9.6 16.9,9.7 18,9.7 C19.1,9.7 20.2,9.6 21.3,9.5 L21.3,31.4 C20.2,31.3 19.1,31.2 18,31.2 C16.9,31.2 15.8,31.4 14.7,31.5 Z" id="Shape"/>
            </g>
        </g>
    </g>
</svg>