<?xml version="1.0" encoding="UTF-8" standalone="no"?>
<svg width="51px" height="40px" viewBox="0 0 51 40" version="1.1" xmlns="http://www.w3.org/2000/svg" xmlns:xlink="http://www.w3.org/1999/xlink">
    <!-- Generator: Sketch 41.2 (35397) - http://www.bohemiancoding.com/sketch -->
    <title>djevica</title>
    <desc>Created with Sketch.</desc>
    <defs/>
    <g id="" stroke="none" stroke-width="1" fill="none" fill-rule="evenodd">
        <g id="front" fill="#ff3948">
            <g id="Layer_1">
                <path d="M41.5,32.5 C46.1,27.7 51,21.6 51,17.4 C51,11.8 48.7,9 44.1,9 C42.7,9 41.5,9.4 40.4,10.1 C39,6.3 36.3,3 32.5,0.9 C31.8,0.5 31,0.5 30.3,0.9 C27.6,2.4 25.4,4.6 23.8,7.1 C22.3,4.6 20.1,2.4 17.3,0.9 C16.6,0.5 15.8,0.5 15.1,0.9 C12.5,2.3 10.4,4.3 8.9,6.7 C7.4,3.9 5.1,1.6 2.2,0 L0,4 C3.9,6.1 6.3,10 6.4,14.3 L6.4,15.9 L6.4,30.8 L11,30.8 L11,15.4 C11,11.5 13,7.9 16.3,5.6 C19.4,7.7 21.3,11 21.5,14.6 L21.6,30.7 L26.2,30.7 L26.2,14.4 C26.5,10.9 28.4,7.6 31.4,5.5 C34.7,7.8 36.7,11.4 36.7,15.3 L36.7,30.8 C36.7,30.8 36.7,30.8 36.7,30.9 C34.9,32.7 33,34.5 31.3,35.9 L34.3,39.3 C35,38.7 36.4,37.5 38.1,35.9 C39.1,37.6 40.6,39 42.4,40 L44.6,36 C43,35.2 42,33.9 41.5,32.5 Z M41.2,17.4 C41.2,15.6 42.4,13.6 44,13.6 C45.4,13.6 46.4,13.6 46.4,17.5 C46.4,19.3 44.2,22.6 41.2,26.1 L41.2,17.4 L41.2,17.4 Z" id="Shape"/>
            </g>
        </g>
    </g>
</svg>