<?xml version="1.0" encoding="UTF-8" standalone="no"?>
<svg width="42px" height="45px" viewBox="0 0 42 45" version="1.1" xmlns="http://www.w3.org/2000/svg" xmlns:xlink="http://www.w3.org/1999/xlink">
    <!-- Generator: Sketch 41.2 (35397) - http://www.bohemiancoding.com/sketch -->
    <title>jarac</title>
    <desc>Created with Sketch.</desc>
    <defs/>
    <g id="" stroke="none" stroke-width="1" fill="none" fill-rule="evenodd">
        <g id="front" fill="#ff3948">
            <g id="Layer_1">
                <path d="M35.1,23.9 C30.8,23.9 29.6,26.6 28.4,29.2 L28.4,29.2 L27,32.5 C26.6,31.7 26.3,30.9 26.3,30 L26.3,15 C26.3,9.2 22.9,3.7 17.5,0.8 L16.4,0.2 L15.3,0.8 C12.7,2.3 10.5,4.3 9,6.6 C7.5,3.9 5.2,1.6 2.2,0 L0,3.9 C4,6 6.4,10 6.4,14.2 L6.4,14.2 L6.4,15.1 L6.4,30.3 L11,30.3 L11,15 C11,11.2 13,7.6 16.3,5.4 C19.6,7.6 21.6,11.2 21.6,15 L21.6,30 C21.6,32.8 22.8,35.3 24.8,37.1 L22,43.2 L26.2,45 L28.8,39.4 C29.7,39.7 30.7,39.8 31.8,39.8 C37.7,39.8 42,36 42,30.7 L42,30.6 C42,26.9 38.9,23.9 35.1,23.9 Z M37.4,30.7 C37.4,33.9 34.6,35.3 31.8,35.3 C31.4,35.3 31.1,35.3 30.7,35.2 L32.6,31 L32.6,31 C33.8,28.3 34,28.3 35.1,28.3 C36.4,28.3 37.4,29.3 37.4,30.5 L37.4,30.7 L37.4,30.7 Z" id="Shape"/>
            </g>
        </g>
    </g>
</svg>