<?xml version="1.0" encoding="UTF-8" standalone="no"?>
<svg width="39px" height="50px" viewBox="0 0 39 50" version="1.1" xmlns="http://www.w3.org/2000/svg" xmlns:xlink="http://www.w3.org/1999/xlink">
    <!-- Generator: Sketch 41.2 (35397) - http://www.bohemiancoding.com/sketch -->
    <title>lav</title>
    <desc>Created with Sketch.</desc>
    <defs/>
    <g id="" stroke="none" stroke-width="1" fill="none" fill-rule="evenodd">
        <g id="front" fill="#ff3948">
            <g id="Layer_1">
                <path d="M33,45.5 C31.2,45.5 30,43.7 29.8,42 C29.5,37.5 31.7,33.3 34.1,28.9 C36.7,24.2 39.3,19.4 38.9,13.8 C38.9,6.2 32.7,0 25.1,0 C17.5,0 11.3,6.2 11.3,13.8 C11.1,16.2 11.8,19.4 12.7,22.4 C12,22.2 11.2,22.2 10.5,22.2 C4.7,22.1 0,26.9 0,32.7 C0,38.5 4.7,43.2 10.5,43.2 C16.3,43.2 21,38.5 21,32.7 C21,30.6 20.4,28.7 19.4,27.1 L19.4,27.1 C17.7,23.7 15.5,17.1 15.8,14.2 L15.8,14 C15.8,8.8 20,4.6 25.2,4.6 C30.4,4.6 34.6,8.8 34.6,14 L34.6,14.2 C35,18.5 32.7,22.5 30.4,26.8 C27.8,31.6 25.1,36.6 25.5,42.4 C25.8,46.7 29.2,50 33.1,50 C35.5,50 37.7,48.8 38.9,46.8 L35.1,44.4 C34.6,45.1 33.9,45.5 33,45.5 Z M10.5,38.7 C7.2,38.7 4.5,36 4.5,32.7 C4.5,29.4 7.2,26.7 10.5,26.7 C13.8,26.7 16.5,29.4 16.5,32.7 C16.5,36 13.8,38.7 10.5,38.7 Z" id="Shape"/>
            </g>
        </g>
    </g>
</svg>