<?xml version="1.0" encoding="UTF-8" standalone="no"?>
<svg width="47px" height="42px" viewBox="0 0 47 42" version="1.1" xmlns="http://www.w3.org/2000/svg" xmlns:xlink="http://www.w3.org/1999/xlink">
    <!-- Generator: Sketch 41.2 (35397) - http://www.bohemiancoding.com/sketch -->
    <title>ovan</title>
    <desc>Created with Sketch.</desc>
    <defs/>
    <g id="" stroke="none" stroke-width="1" fill="none" fill-rule="evenodd">
        <g id="front" fill="#ff3948">
            <g id="Layer_1">
                <path d="M38.6,0 C38.6,0 38.5,0 38.6,0 C35.2,0 31,1.5 29.3,8.5 L23.5,26.8 L17.7,8.5 C16,1.5 11.8,0 8.5,0 C8.5,0 8.5,0 8.4,0 C3.8,0 0,3.8 0,8.5 L0,9.3 C0,13.4 3.4,16.7 7.6,16.7 L7.6,12.2 C6,12.2 4.6,10.9 4.6,9.3 L4.6,8.5 C4.6,6.3 6.3,4.6 8.4,4.5 C9.4,4.5 11.9,4.5 13.1,9.5 L23.5,42 L33.8,9.7 L33.8,9.5 C35,4.4 37.5,4.5 38.5,4.5 C40.6,4.5 42.3,6.3 42.3,8.5 L42.3,9.3 C42.3,10.9 41,12.2 39.3,12.2 L39.3,16.7 C43.5,16.7 46.9,13.4 46.9,9.3 L46.9,8.5 C47,3.8 43.2,0 38.6,0 Z" id="Shape"/>
            </g>
        </g>
    </g>
</svg>