<?xml version="1.0" encoding="UTF-8" standalone="no"?>
<svg width="46px" height="40px" viewBox="0 0 46 40" version="1.1" xmlns="http://www.w3.org/2000/svg" xmlns:xlink="http://www.w3.org/1999/xlink">
    <!-- Generator: Sketch 41.2 (35397) - http://www.bohemiancoding.com/sketch -->
    <title>rak</title>
    <desc>Created with Sketch.</desc>
    <defs/>
    <g id="" stroke="none" stroke-width="1" fill="none" fill-rule="evenodd">
        <g id="front" fill="#ff3948">
            <g id="Layer_1">
                <g id="Group">
                    <path d="M23.5,35.5 C20.5,35.5 17.6,35.1 14.9,34.3 C17.9,32.6 19.9,29.4 19.9,25.7 C19.9,20.2 15.4,15.8 9.9,15.8 C4.4,15.8 0,20.2 0,25.7 C0,28.3 1,30.7 2.7,32.5 L2.7,32.5 L2.8,32.6 C2.9,32.7 3,32.8 3.1,32.9 C7.7,37.3 15.4,40 23.5,40 C32.1,40 39.9,37.3 44.3,32.7 L41.1,29.6 C37.6,33.2 30.8,35.5 23.5,35.5 Z M10,20.3 C13,20.3 15.5,22.7 15.5,25.7 C15.5,28.7 13,31.2 10,31.2 C8.6,31.2 7.4,30.7 6.4,29.8 C6.3,29.7 6.2,29.6 6.1,29.5 C5.2,28.5 4.6,27.2 4.6,25.7 C4.5,22.7 7,20.3 10,20.3 Z" id="Shape"/>
                    <path d="M21.5,4.5 C24.5,4.5 27.4,4.9 30.1,5.7 C27.1,7.4 25.1,10.6 25.1,14.3 C25.1,19.8 29.6,24.2 35.1,24.2 C40.6,24.2 45.1,19.7 45.1,14.3 C45.1,11.7 44.1,9.3 42.4,7.5 L42.4,7.5 L42.3,7.4 C42,7.2 41.9,7.1 41.8,7 C37.2,2.6 29.5,0 21.4,0 C12.9,0 5.1,2.7 0.6,7.3 L3.8,10.4 C7.4,6.8 14.2,4.5 21.5,4.5 Z M35,19.7 C32,19.7 29.5,17.3 29.5,14.3 C29.5,11.3 31.9,8.9 35,8.9 C36.4,8.9 37.6,9.4 38.6,10.2 C38.7,10.3 38.8,10.4 39,10.5 C39.9,11.5 40.5,12.8 40.5,14.3 C40.5,17.3 38,19.7 35,19.7 Z" id="Shape"/>
                </g>
            </g>
        </g>
    </g>
</svg>