<?xml version="1.0" encoding="UTF-8" standalone="no"?>
<svg width="34px" height="42px" viewBox="0 0 34 42" version="1.1" xmlns="http://www.w3.org/2000/svg" xmlns:xlink="http://www.w3.org/1999/xlink">
    <!-- Generator: Sketch 41.2 (35397) - http://www.bohemiancoding.com/sketch -->
    <title>riba</title>
    <desc>Created with Sketch.</desc>
    <defs/>
    <g id="" stroke="none" stroke-width="1" fill="none" fill-rule="evenodd">
        <g id="front" fill="#ff3948">
            <g id="Layer_1">
                <path d="M24.2,23.2 L31.1,23.2 L31.1,18.7 L24.2,18.7 C24.9,12.6 28.6,7 34,3.9 L31.8,0 C25,4 20.5,11 19.8,18.8 L14.4,18.8 C13.6,11 9.1,4 2.3,0 L0,3.9 C5.5,7 9.1,12.6 9.8,18.8 L3.2,18.8 L3.2,23.3 L9.8,23.3 C9.1,29.4 5.5,35 0,38.1 L2.3,42 C9.1,38 13.6,31 14.3,23.2 L19.7,23.2 C20.4,31 24.9,38 31.7,42 L34,38.1 C28.6,35 24.9,29.4 24.2,23.2 Z" id="Shape"/>
            </g>
        </g>
    </g>
</svg>