<?xml version="1.0" encoding="UTF-8" standalone="no"?>
<svg width="47px" height="42px" viewBox="0 0 47 42" version="1.1" xmlns="http://www.w3.org/2000/svg" xmlns:xlink="http://www.w3.org/1999/xlink">
    <!-- Generator: Sketch 41.2 (35397) - http://www.bohemiancoding.com/sketch -->
    <title>škorpion</title>
    <desc>Created with Sketch.</desc>
    <defs/>
    <g id="" stroke="none" stroke-width="1" fill="none" fill-rule="evenodd">
        <g id="front" fill="#ff3948">
            <g id="Layer_1">
                <path d="M42.5,32.3 L42.5,34.4 C41.5,33.3 41,32 41,30.6 L41,15.2 C41,9.3 37.7,3.8 32.3,0.9 L31.2,0.3 L30.1,0.9 C27.4,2.4 25.2,4.5 23.7,7.1 C22.2,4.6 20,2.4 17.3,0.9 L16.2,0.3 L15.1,0.9 C12.5,2.3 10.4,4.3 8.9,6.7 C7.4,3.9 5.1,1.6 2.2,0 L0,3.9 C3.9,6.1 6.4,10 6.4,14.3 L6.4,15.2 L6.4,30.6 L10.9,30.6 L10.9,15.2 C10.9,11.4 12.9,7.7 16.2,5.5 C19.5,7.8 21.5,11.4 21.5,15.2 L21.5,30.3 L26,30.3 L26,15.2 C26,11.4 28,7.7 31.3,5.5 C34.6,7.8 36.6,11.4 36.6,15.2 L36.6,30.6 C36.6,33.2 37.6,35.6 39.4,37.5 L37.3,37.5 L37.3,42 L47,42 L47,32.3 L42.5,32.3 Z" id="Shape"/>
            </g>
        </g>
    </g>
</svg>