<?xml version="1.0" encoding="UTF-8" standalone="no"?>
<svg width="41px" height="38px" viewBox="0 0 41 38" version="1.1" xmlns="http://www.w3.org/2000/svg" xmlns:xlink="http://www.w3.org/1999/xlink">
    <!-- Generator: Sketch 41.2 (35397) - http://www.bohemiancoding.com/sketch -->
    <title>vaga</title>
    <desc>Created with Sketch.</desc>
    <defs/>
    <g id="" stroke="none" stroke-width="1" fill="none" fill-rule="evenodd">
        <g id="front" fill="#ff3948">
            <g id="Layer_1">
                <g id="Group">
                    <path d="M41,26 L23.6,26 L27.7,22.2 C29.8,20.2 30.9,17.6 30.9,14.8 C30.9,9.1 26.3,4.6 20.5,4.6 C14.8,4.6 10.1,9.2 10.1,14.8 C10.1,17.6 11.2,20.2 13.3,22.2 L17.3,26 L0,26 L0,21.5 L7.3,21.5 C6.2,19.4 5.6,17.1 5.6,14.7 C5.7,6.6 12.3,0 20.5,0 C28.7,0 35.4,6.6 35.4,14.7 C35.4,17.1 34.8,19.4 33.7,21.5 L41,21.5 L41,26 Z" id="Shape"/>
                    <polygon id="Shape" points="41 38 0 38 0 33.5 41 33.5"/>
                </g>
            </g>
        </g>
    </g>
</svg>